<svg id="图层_1" data-name="图层 1" xmlns="http://www.w3.org/2000/svg" viewBox="0 0 580.94 244.02"><defs><style>.cls-1{fill:#fff;}.cls-2{fill:#2b7de1;}.cls-3{fill:#4976e6;}.cls-4{fill:#f80;}.cls-5{fill:none;}.cls-6{fill:#3680f4;}</style></defs><title>运营logo（登陆页）</title><path class="cls-1" d="M88.85,126.61l0,0h0a4.78,4.78,0,0,0-.54,0Z"/><path class="cls-2" d="M112.94,102.61a1.74,1.74,0,0,0-.21.55l.09-.66Z"/><polygon class="cls-3" points="256.92 77.61 243.83 77.57 243.83 65.39 230.9 65.39 250.29 45.57 267.75 45.57 256.92 59.54 256.92 77.61"/><polygon class="cls-3" points="292.35 63.36 292.28 70.95 324.36 70.98 324.42 77.51 277.87 77.57 277.87 67.76 267.64 72.26 267.64 64.63 277.87 60.41 277.87 45.97 292.35 45.97 292.35 56.32 324.5 45.97 324.43 53.05 292.35 63.36"/><polygon class="cls-3" points="340.07 50.57 357.14 50.57 368.48 66.82 351.72 67.2 340.07 50.57"/><polygon class="cls-3" points="424.5 50.5 413.77 66.89 396.7 66.89 407.95 50.5 424.5 50.5"/><polygon class="cls-3" points="443.08 50.57 460.15 50.57 471.49 66.82 454.73 67.2 443.08 50.57"/><polygon class="cls-3" points="526.85 50.68 516.11 67.07 499.04 67.07 510.29 50.68 526.85 50.68"/><path class="cls-3" d="M426.92,83.85v35.54c0,5-3.66,9-8.19,9H337.94v-8.95H411a2.73,2.73,0,0,0,2.74-2.73v-8.45a2.74,2.74,0,0,0-2.74-2.73H316.43a2,2,0,0,1-2-2v-5c0-3.27-2.36-5.92-5.28-5.92H260c-2.92,0-5.29,2.65-5.29,5.92l0,5a2,2,0,0,1-2,2H240.58l-.06-16c0-3.27,2.37-5.92,5.29-5.92h77c2.92,0,5.29,2.65,5.29,5.92v7.06h82.78a2.9,2.9,0,0,0,2.92-2.73l0-7.31A2.73,2.73,0,0,0,411,83.81H339.82v-9h35.9V45.58l13.09,0V74.84l29.92,0C423.26,74.86,426.92,78.89,426.92,83.85Z"/><path class="cls-3" d="M440.9,83.81v-9l37.87.07V45.64l13.09,0V74.94h29.92c4.52,0,8.19,4,8.19,9v35.54c0,5-3.67,9-8.19,9H441V119.5h73.06a2.74,2.74,0,0,0,2.74-2.73v-8.45a2.74,2.74,0,0,0-2.74-2.73l-71.88-.15V96.61l71.73,0a2.88,2.88,0,0,0,2.89-2.74V86.61a2.74,2.74,0,0,0-2.74-2.73Z"/><path class="cls-4" d="M324,127.44c-2.48-8.32-8.95-15.35-18.22-19.87a50.88,50.88,0,0,0-30.94-4c-16.38,3-28.22,13.21-31.09,25.34H257.5c2.61-7.34,10.18-13.38,20.36-15.24a37,37,0,0,1,6.28-.54,33.6,33.6,0,0,1,14.59,3.24c5.95,2.91,10.15,7.33,12,12.54h13.7C324.3,128.42,324.17,127.93,324,127.44Z"/><path class="cls-3" d="M242.1,160.68a54.61,54.61,0,0,1-6.19,4.13l-1-3.61q8.67-4.9,12.62-11.1l2.77,1.5a31.22,31.22,0,0,1-4.88,6.19v12.49H242.1Zm15.82,17.86q-1,10-4.32,13.63-3.71,4.38-16.38,5.52l-1.36-3.35q11.31-.63,15-4.34,3.24-3.51,3.8-11.77Zm13.1-6v15.39h-3.48V176H245v12.7h-3.43V172.55Zm-11-2.94q-4.32,0-4.32-4.28v-2.17L249.85,165l-1.83-3c2.53-.72,5.1-1.53,7.69-2.42v-9H259v7.85a59.24,59.24,0,0,0,13.14-7.07l2.16,2.48A66.76,66.76,0,0,1,259,162v2.63c0,1.21.64,1.81,1.92,1.81h8.69a3.08,3.08,0,0,0,2.2-.67c.57-.52.94-2.08,1.13-4.7l3.1,1.08q-.48,5.32-1.93,6.51a6.46,6.46,0,0,1-3.89,1Zm-.8,18.38a88.37,88.37,0,0,1,16.53,6.86L273.88,198a83.62,83.62,0,0,0-16.33-7.17Z"/><path class="cls-3" d="M328.55,196.76q-2.34,0-8.26-.1a29.18,29.18,0,0,1-7.32-.93A10.46,10.46,0,0,1,308,192q-1-1.29-1.83-1.29-1.68,0-5.63,7.12l-2.53-2.53q3.79-6.56,6.71-7.89V171.68h-6.71v-3.41h9.85v19.3a7.77,7.77,0,0,1,1.13,1.19,11.19,11.19,0,0,0,3.61,3.25,15.6,15.6,0,0,0,6.29,1.24q4.89.1,9.15.1,2.12,0,6.72-.1c2.53-.07,4.27-.14,5.21-.2l-.8,3.71Zm-27.36-45.58a59.32,59.32,0,0,1,8,8l-2.44,2.64a56.59,56.59,0,0,0-7.84-8.21Zm9.95,13.58h27.69v3.46H324.05q-3.9,10.83-6.95,15.38a110,110,0,0,0,15.68-2.48q-1.45-3.62-3.71-8.26l2.77-1a99.47,99.47,0,0,1,6.71,16.37l-3,.87c-.35-1.1-.86-2.68-1.55-4.75a144.69,144.69,0,0,1-20.7,2.95l-.89-3.25q2.82-.93,8.26-15.85h-9.53Zm3.1-12.34H335.5v3.46H314.24Z"/><path class="cls-3" d="M382.06,178.13q-4.28,1.55-8.54,2.78v11.31q0,4.8-4.32,4.8H364l-.7-3.56c1.81.17,3.41.26,4.78.26s2-.81,2-2.43v-9.5q-5.07,1.25-9.24,2l-.47-3.76q6-1.1,9.71-2V167.86h-9.66v-3.57H370v-6.91q-3.37.76-7.74,1.44l-.7-3.56a64.81,64.81,0,0,0,17.74-4.54l1.12,3.51c-2.06.79-4.38,1.56-6.94,2.32v7.74h11.26q-.42-6.28-.42-13.83h3.38q.09,8.16.47,13.83h14.5v3.57H388.49a76.37,76.37,0,0,0,1.31,9.34c.22,1,.53,2.25.94,3.66a52.73,52.73,0,0,0,6-10.22l2.91,1.71A50.85,50.85,0,0,1,392,184.79a24.53,24.53,0,0,0,2.07,4.44c1.53,2.51,2.74,3.77,3.61,3.77s1.74-2.95,2.49-8.73l3,1.71q-1.69,11-4.93,11-2.87,0-6.1-4.65a25.58,25.58,0,0,1-2.59-4.9A37.89,37.89,0,0,1,378,195.16l-1.83-3.2a34.21,34.21,0,0,0,12-8.15q-.84-2.59-1.55-5.68a86.24,86.24,0,0,1-1.55-10.27H373.52v9.29c3.12-.9,6-1.82,8.54-2.79ZM392.9,151a64.74,64.74,0,0,1,8.59,7.38l-2.44,2.68a55.1,55.1,0,0,0-8.4-7.69Z"/><path class="cls-3" d="M427.07,164.91h-3.71V161.5h12.25l2.25-5.57H426.18v-3.41h15.58v1.71l-2.87,7.27h6.2v3.41h-2.91v20.7l3.85-1.13v3.46L442.18,189v8.67h-3.29V189.9q-7.36,1.86-15.48,3.25l-.8-3.51,4.46-.67Zm11.82,0h-8.54v5.27h8.54Zm-8.54,13.47h8.54v-4.95h-8.54Zm0,10q4.08-.82,8.54-1.86v-4.85h-8.54Zm18.73-18.89a43.91,43.91,0,0,1-2.77,5.93l-2.11-2.84q4.26-8.31,5.82-22.5l3.28.62q-.66,4.64-1.17,7.58h13.09v3.57h-3.33q-.28,13-4.36,22.14a30.81,30.81,0,0,0,8.77,10.43l-2,3.25a33.14,33.14,0,0,1-8.49-10.22A34.75,34.75,0,0,1,446.78,198l-1.78-3.2a29.61,29.61,0,0,0,9.05-10.84A76.31,76.31,0,0,1,449.08,169.46Zm2.3-7.64-.57,2.27a73.35,73.35,0,0,0,4.84,16.1,57.49,57.49,0,0,0,3.14-18.37Z"/><path class="cls-3" d="M489.63,167.19h16V150.87h3.57v16.32H525v30.14h-3.43v-2H489.35v-3.61h32.24v-8.88H491.84v-3.57h29.75V170.8h-32ZM493,153.56a76.43,76.43,0,0,1,6,9.39l-2.86,2.17a74.38,74.38,0,0,0-6-9.6Zm32.2,1.08a49.42,49.42,0,0,1-5.92,10.43l-3-1.76a57.45,57.45,0,0,0,5.91-10.22Z"/><rect class="cls-5" x="39.92" y="72.47" width="643.7" height="95.36"/><rect class="cls-3" x="45.24" y="45.1" width="150.79" height="152.99" rx="34.32"/><path class="cls-6" d="M113.35,102.17a1.6,1.6,0,0,0-.21.54l.09-.65Z"/><path class="cls-1" d="M143,89.91l-3.12,35.71a6.88,6.88,0,0,0-.92-.06,7.8,7.8,0,0,0-7.38,7,7,7,0,0,0,.24,2.44,2.44,2.44,0,0,1-2.44-2.74L131.11,112l9.74-8.47a1.82,1.82,0,0,0,.11-2.8l-8.21-7.52.19-2.16a3,3,0,0,1,2.95-2.71h5.65A1.41,1.41,0,0,1,143,89.91Z"/><path class="cls-1" d="M115.32,93l-1,11.43-.11.09s-1.89,19.9-1.57,19l-.72,8.15a4.16,4.16,0,0,1-1.41,2.15,0,0,0,0,0,0,0,4.28,4.28,0,0,1-2,1.12L95.75,135a8,8,0,0,0,.46-2.07,7.41,7.41,0,0,0-2.41-6.17h8.61l2.33-28.33h-3.17l6.88-8.31H113C115.29,90.17,115.32,93,115.32,93Z"/><path class="cls-1" d="M89.61,90.13s-17.47,14-20.92,18.61c0,.09-.08.2-.1.26l-1.75,23.61s-.34,2.7,3.94,2.37H81.45l1.45,0a5.19,5.19,0,0,0,4.91,3.2,6.43,6.43,0,0,0,6.31-5.72,5.17,5.17,0,0,0-4.74-5.67H77.48l1.23-17.13,13.1-11.16,2.85,0,6.87-8.23.08-.08ZM88.5,130.57a2.13,2.13,0,0,1,2.16,2.36,2.62,2.62,0,0,1-2.57,2.36,2.13,2.13,0,0,1-2.16-2.36A2.63,2.63,0,0,1,88.5,130.57Z"/><path class="cls-6" d="M89.4,126.75l0,0h0a5,5,0,0,0-.54,0Z"/><path class="cls-6" d="M114.31,104.41l-1.68,19.08h0c-.32.91,1.57-19,1.57-19Z"/><path class="cls-4" d="M138.05,103.18l-7.66,6.66.46-2.38s-14.12,3.43-18.22,16l1.68-19.08c.72-.55,4.93-3.52,14.39-5.37l2.87-.62.26-3.31,6.19,5.64A1.83,1.83,0,0,1,138.05,103.18Z"/><path class="cls-1" d="M160.37,88.21h-10A2,2,0,0,0,148.48,90l-3.25,37.36,9.4-13.8,2.23-15.67h6.25a10.6,10.6,0,0,1,1.14.06l5.43-8.38A26.14,26.14,0,0,0,160.37,88.21Zm-1.8,37.18h-2.63L149.86,135h2.76a1.83,1.83,0,0,0,1.45-.76l5.63-8.85C159.33,125.41,159,125.39,158.57,125.39Zm18.89-28.78A10.68,10.68,0,0,0,175.8,94l-5,7.69a9.33,9.33,0,0,1,1.25,4l5.37-8.46A.71.71,0,0,0,177.46,96.61Zm1.07,2.94-6.65,10.3c0,.49-.07,1.09-.15,1.56-.82,4.59-2.42,8.1-4.81,10.49a11,11,0,0,1-4.16,2.63l-6.67,10.53.73-.06c14.15.76,21.63-7.19,22.36-23.72A31.08,31.08,0,0,0,178.53,99.55ZM152.9,125.37l.8-5.56-7.35,10.39a6.92,6.92,0,0,1,.23,2.43A6.65,6.65,0,0,1,146,135a2.33,2.33,0,0,0,.36,0h1l6.12-9.62Zm18.69-34.89-5.05,7.8a9.09,9.09,0,0,1,3,1.62l4.87-7.55A13.27,13.27,0,0,0,171.59,90.48Z"/><path class="cls-1" d="M139.52,127.47a6,6,0,0,0-5.88,5.42,4.87,4.87,0,0,0,4.92,5.41,6,6,0,0,0,5.9-5.41A4.89,4.89,0,0,0,139.52,127.47Zm-.76,7.85A2.14,2.14,0,0,1,136.6,133a2.62,2.62,0,0,1,2.57-2.36,2.13,2.13,0,0,1,2.16,2.36A2.63,2.63,0,0,1,138.76,135.32Z"/><path class="cls-1" d="M72.6,141.89l-1.46,3.16h3l1.25-2.62-.21-.54h3L74.44,150H71.82l1.73-3.6H70.49L68.8,150H66.17l3.67-7.74-.4-.4Z"/><path class="cls-1" d="M82.22,147.41H77.56l.72-1.46H83Z"/><path class="cls-1" d="M98.42,141.89l-3.36,7.18a1.3,1.3,0,0,1-.55.69,1.48,1.48,0,0,1-.81.27H86.35l3.48-7.6-.21-.54Zm-6.25,1.38-2.59,5.38h3.14l2.61-5.38Z"/><path class="cls-1" d="M107.62,141.89,105.91,150h-2.35l.48-2.21h-3.28L99.1,150H96.87l5.63-7.74-.26-.4Zm-3.48,1.38-2.38,3.16h2.62l.67-3.16Z"/><path class="cls-1" d="M113.54,141.89l1,5.1,2.38-5.1h2.24l-3.8,8.14h-2.62l-.94-5-2.34,5h-2.37l3.62-7.6-.35-.54Z"/><path class="cls-1" d="M128.57,144.23h-2.63l.45-1h-3.14l-2.47,5.38h3.14l.7-1.66-.33-1.38h3.54l-2,4.42h-7.35a.67.67,0,0,1-.33-.07.54.54,0,0,1-.22-.2.62.62,0,0,1,0-.31.8.8,0,0,1,.15-.38l3.33-7.18h8.27Z"/><path class="cls-1" d="M143.72,141.89l-3.36,7.18a1.3,1.3,0,0,1-.55.69,1.48,1.48,0,0,1-.81.27h-7.35l3.48-7.6-.21-.54Zm-6.25,1.38-2.59,5.38H138l2.61-5.38Z"/><path class="cls-1" d="M152.93,141.89,151.22,150h-2.35l.47-2.21h-3.28L144.4,150h-2.23l5.63-7.74-.26-.4Zm-3.49,1.38-2.38,3.16h2.63l.67-3.16Z"/><path class="cls-1" d="M158.84,141.89l1,5.1,2.38-5.1h2.24l-3.8,8.14h-2.62l-.94-5-2.34,5h-2.36l3.61-7.6-.35-.54Z"/><path class="cls-1" d="M173.87,144.23h-2.62l.45-1h-3.15l-2.47,5.38h3.14l.7-1.66-.33-1.38h3.54l-2,4.42h-7.35a.67.67,0,0,1-.33-.07.47.47,0,0,1-.26-.51.89.89,0,0,1,.14-.38l3.34-7.18h8.26Z"/></svg>