<svg id="图层_1" data-name="图层 1" xmlns="http://www.w3.org/2000/svg" width="211.59" height="187.83" viewBox="0 0 211.59 187.83"><defs><style>.cls-1{fill:#eb3323;}</style></defs><title>预警2</title><path class="cls-1" d="M209.45,162.62,120.45,8.4a16.79,16.79,0,0,0-29.09,0l-89,154.22a16.8,16.8,0,0,0,14.55,25.2h178a16.8,16.8,0,0,0,14.54-25.2ZM96.27,58.62a9.59,9.59,0,0,1,19.18,0v62.27a9.59,9.59,0,0,1-19.18,0Zm9.6,106.26h0a11.41,11.41,0,1,1,11.41-11.41A11.41,11.41,0,0,1,105.86,164.89Z" transform="translate(-0.11 0.01)"/></svg>