<?xml version="1.0" encoding="utf-8"?>
<!-- Generator: Adobe Illustrator 23.0.3, SVG Export Plug-In . SVG Version: 6.00 Build 0)  -->
<svg version="1.1" id="图层_1" xmlns="http://www.w3.org/2000/svg" xmlns:xlink="http://www.w3.org/1999/xlink" x="0px" y="0px"
	 viewBox="0 0 80 80" style="enable-background:new 0 0 80 80;" xml:space="preserve">
<style type="text/css">
	.st0{fill:#3680F4;}
	.st1{fill:#FFFFFF;}
	.st2{fill:#2B7DE1;}
	.st3{fill:#FFFEFF;}
	.st4{fill:#FF8800;}
	.st5{fill:none;}
	.st6{fill:url(#SVGID_1_);}
	.st7{fill:#EEF6FE;}
	.st8{fill:#FFFFFF;stroke:#3680F4;stroke-width:3.5208;stroke-miterlimit:10;}
	.st9{fill:url(#SVGID_2_);}
	.st10{font-family:'YouSheBiaoTiHei';}
	.st11{font-size:7.57px;}
	.st12{letter-spacing:-2.22;}
</style>
<g>
	<linearGradient id="SVGID_1_" gradientUnits="userSpaceOnUse" x1="30.688" y1="41.1541" x2="26.8512" y2="47.7996">
		<stop  offset="0.339" style="stop-color:#F4F9FF"/>
		<stop  offset="0.4499" style="stop-color:#F4F9FF"/>
		<stop  offset="0.9503" style="stop-color:#F2F8FE"/>
		<stop  offset="1" style="stop-color:#F1F8FE"/>
	</linearGradient>
	<path class="st6" d="M33.34,45.66c-0.53,1.1-1.52,1.29-1.52,1.29l-6.4,0.03c0.12-0.33,0.2-0.68,0.23-1.03
		c0.12-1.5-0.53-2.37-1.21-3.08l9.23,0.01l-0.19,2.36C33.48,45.3,33.36,45.6,33.34,45.66z"/>
	<path class="st2" d="M34.19,30.98c-0.05,0.08-0.08,0.17-0.11,0.27l0.05-0.33L34.19,30.98z"/>
	<path class="st3" d="M48.95,24.5L47.4,42.3c-0.15-0.02-0.3-0.03-0.46-0.03c-1.86,0-3.52,1.65-3.68,3.51
		c-0.03,0.43,0.01,0.84,0.12,1.21c-0.74-0.01-1.29-0.6-1.21-1.36l0.88-10.11l4.85-4.22c0.48-0.44,0.45-1.06,0.05-1.4l-4.09-3.75
		l0.1-1.07c0.06-0.75,0.72-1.35,1.47-1.35h2.81C48.67,23.73,48.98,24.07,48.95,24.5z"/>
	<path class="st1" d="M35.17,26.03l-0.5,5.7l-0.82,9.37l-0.36,4.13c0,0.05-0.01,0.1-0.03,0.15c-0.35,1.15-1.66,1.58-1.66,1.58
		l-3.39-0.05l1.49-18.17l-1.58,0l3.43-4.14H34C35.16,24.63,35.17,26.03,35.17,26.03z"/>
	<path class="st1" d="M22.36,24.61c0,0-8.71,6.99-10.43,9.28c-0.02,0.04-0.04,0.1-0.05,0.13L11,45.79c0,0-0.17,1.34,1.97,1.18h5.32
		l0.72-0.01c0.39,0.95,1.31,1.59,2.45,1.59c1.6,0,3.01-1.27,3.15-2.85c0.13-1.47-0.91-2.68-2.36-2.82h-0.01
		c-0.09-0.01-0.18-0.01-0.27-0.01l-5.88,0.08l0.65-8.63l6.72-5.55l1.42-0.01l3.43-4.1l0.04-0.04H22.36z M20.52,45.95
		c0.06-0.65,0.63-1.18,1.28-1.18c0.65,0,1.13,0.53,1.07,1.18c-0.06,0.65-0.63,1.18-1.28,1.18C20.94,47.12,20.46,46.6,20.52,45.95z"
		/>
	<path class="st1" d="M22.25,42.87l-0.01,0.01h-0.01c-0.09-0.01-0.18-0.01-0.27-0.01H22.25z"/>
	<path class="st4" d="M46.5,31.12l-3.82,3.32l0.23-1.19c0,0-7,1.61-9.05,7.89c-0.01,0.04-0.02,0.02-0.02-0.05l0.82-9.37
		c0.36-0.27,2.45-1.75,7.17-2.68c0,0,1.4-0.3,1.43-0.31l0.13-1.65l3.08,2.81C46.79,30.23,46.81,30.85,46.5,31.12z"/>
	<path class="st3" d="M57.63,23.65h-4.97c-0.48,0-0.9,0.4-0.96,0.87l-1.62,18.62l4.69-6.88l1.11-7.81h3.11
		c0.19,0,0.39,0.01,0.57,0.03l2.71-4.18C60.97,23.85,59.43,23.62,57.63,23.65z M56.73,42.19l-1.31,0l-3.03,4.79h1.37
		c0.27,0,0.57-0.14,0.73-0.38l2.8-4.41C57.11,42.2,56.92,42.19,56.73,42.19z M66.15,27.84c-0.23-0.48-0.49-0.93-0.83-1.31
		l-2.48,3.83c0.33,0.56,0.56,1.24,0.62,2.02l2.67-4.22C66.19,28.06,66.2,27.93,66.15,27.84z M66.68,29.3l-3.32,5.14
		c-0.02,0.24-0.03,0.54-0.07,0.78c-0.41,2.29-1.2,4.04-2.4,5.23c-0.61,0.6-1.3,1.04-2.07,1.31l-3.33,5.25l0.36-0.03
		c7.06,0.38,10.78-3.59,11.15-11.82C67.24,32.87,67.14,30.91,66.68,29.3z M53.48,42.18l0.49-2.76l-3.33,5.17
		c0.11,0.38,0.15,0.78,0.12,1.21c-0.03,0.41-0.14,0.79-0.31,1.16c0.06,0.01,0.12,0.02,0.18,0.02h0.5l3.05-4.8H53.48z M63.22,24.78
		l-2.52,3.89c0.52,0.17,1.11,0.48,1.47,0.81l2.43-3.77C64.24,25.38,63.67,25.01,63.22,24.78z"/>
	<path class="st1" d="M47.23,43.23c-1.49,0-2.8,1.21-2.93,2.7c-0.13,1.49,0.97,2.7,2.46,2.7c1.49,0,2.8-1.21,2.93-2.7
		C49.82,44.44,48.72,43.23,47.23,43.23z M48.13,45.93c-0.04,0.65-0.6,1.19-1.25,1.21c-0.65,0.01-1.14-0.5-1.1-1.15
		c0.04-0.65,0.6-1.19,1.25-1.2C47.68,44.76,48.17,45.28,48.13,45.93z"/>
	<text transform="matrix(0.8996 0 -0.3198 0.9475 10.5432 55.1417)"><tspan x="0" y="0" class="st3 st10 st11">H-</tspan><tspan x="9.21" y="0" class="st3 st10 st11 st12"> </tspan><tspan x="11.18" y="0" class="st3 st10 st11">DANG</tspan><tspan x="34.31" y="0" class="st3 st10 st11 st12"> </tspan><tspan x="36.28" y="0" class="st3 st10 st11">DANG</tspan></text>
</g>
</svg>
