<?xml version="1.0" encoding="utf-8"?>
<!-- Generator: Adobe Illustrator 23.0.3, SVG Export Plug-In . SVG Version: 6.00 Build 0)  -->
<svg version="1.1" id="图层_1" xmlns="http://www.w3.org/2000/svg" xmlns:xlink="http://www.w3.org/1999/xlink" x="0px" y="0px"
	 viewBox="0 0 240 80" style="enable-background:new 0 0 240 80;" xml:space="preserve">
<style type="text/css">
	.st0{fill:url(#SVGID_1_);}
	.st1{fill:url(#SVGID_2_);}
	.st2{fill:#2B7DE1;}
	.st3{fill:#FFFEFF;}
	.st4{fill:#FFFFFF;}
	.st5{fill:#FF8800;}
	.st6{fill:#3680F4;}
	.st7{fill:none;}
	.st8{font-family:'YouSheBiaoTiHei';}
	.st9{font-size:4.4253px;}
	.st10{letter-spacing:-1.11;}
	.st11{fill:url(#SVGID_3_);}
	.st12{fill:#EEF6FE;}
	.st13{fill:#FFFFFF;stroke:#3680F4;stroke-width:2.9889;stroke-miterlimit:10;}
</style>
<path class="st4" d="M20.75,41.17L20.75,41.17l-0.01,0.01c-0.05-0.01-0.11-0.01-0.16-0.01H20.75z"/>
<path class="st2" d="M27.77,34.18c-0.03,0.05-0.05,0.1-0.06,0.16l0.03-0.19L27.77,34.18z"/>
<polygon class="st3" points="69.72,26.9 65.91,26.88 65.91,23.33 62.14,23.33 67.79,17.56 72.88,17.56 69.72,21.63 "/>
<polygon class="st4" points="80.05,22.74 80.03,24.95 89.38,24.96 89.39,26.86 75.83,26.88 75.83,24.02 72.85,25.33 72.85,23.11 
	75.83,21.88 75.83,17.67 80.05,17.67 80.05,20.69 89.42,17.67 89.4,19.74 "/>
<polygon class="st4" points="93.95,19.01 98.93,19.01 102.23,23.75 97.35,23.86 "/>
<polygon class="st4" points="118.56,18.99 115.43,23.77 110.46,23.77 113.74,18.99 "/>
<polygon class="st4" points="123.97,19.01 128.95,19.01 132.25,23.75 127.37,23.86 "/>
<polygon class="st4" points="148.38,19.05 145.25,23.82 140.28,23.82 143.56,19.05 "/>
<path class="st4" d="M69.07,32.98l0.01,1.45c0,0.33-0.26,0.6-0.59,0.6h-3.53l-0.02-4.66c0-0.95,0.69-1.73,1.54-1.73h22.43
	c0.85,0,1.54,0.77,1.54,1.73v4.66h-3.39c-0.33,0-0.59-0.27-0.59-0.59l0-1.45c0-0.95-0.69-1.73-1.54-1.73H70.61
	C69.76,31.25,69.07,32.03,69.07,32.98z"/>
<path class="st4" d="M93.88,28.7v-2.61h10.46v-8.53l3.81-0.01v8.53l8.72,0.01c1.32,0,2.39,1.17,2.39,2.62v10.35
	c0,1.45-1.07,2.62-2.39,2.62H93.33v-2.61h21.29c0.44,0,0.8-0.36,0.8-0.8l0-2.46c0-0.44-0.36-0.8-0.8-0.8l-24.23,0l-0.05-2.6l24.23,0
	c0.44,0,0.85-0.36,0.85-0.8l0-2.13c0-0.44-0.36-0.8-0.8-0.8H93.88z"/>
<path class="st4" d="M123.34,28.7v-2.61l11.03,0.02v-8.53l3.82,0v8.53l8.72,0c1.32,0,2.39,1.17,2.39,2.62v10.35
	c0,1.45-1.07,2.62-2.39,2.62h-23.54V39.1h21.29c0.44,0,0.8-0.36,0.8-0.8l0-2.46c0-0.44-0.36-0.8-0.8-0.8L123.7,35v-2.57l20.9,0.02
	c0.44,0,0.84-0.36,0.84-0.8l0-2.13c0-0.44-0.36-0.8-0.8-0.8L123.34,28.7z"/>
<path class="st5" d="M89.28,41.41c-0.72-2.42-2.61-4.47-5.31-5.79c-2.7-1.31-5.91-1.73-9.01-1.17c-4.77,0.86-8.23,3.85-9.06,7.38h4
	c0.76-2.14,2.97-3.9,5.94-4.44c0.6-0.1,1.23-0.16,1.83-0.16c1.49,0,2.96,0.32,4.25,0.95c1.73,0.85,2.96,2.14,3.5,3.65h3.99
	C89.36,41.7,89.32,41.56,89.28,41.41z"/>
<g>
	<path class="st3" d="M65.41,51.1c-0.57,0.44-1.18,0.84-1.81,1.2l-0.3-1.05c1.69-0.95,2.91-2.03,3.68-3.23l0.81,0.44
		c-0.37,0.63-0.85,1.23-1.42,1.8v3.64h-0.96V51.1z M70.02,56.31c-0.19,1.95-0.61,3.27-1.26,3.97c-0.72,0.85-2.31,1.39-4.77,1.61
		l-0.4-0.98c2.2-0.12,3.65-0.54,4.36-1.26c0.63-0.68,1-1.83,1.11-3.43L70.02,56.31z M73.83,54.56v4.48h-1.01v-3.49h-6.58v3.7h-1
		v-4.69H73.83z M70.63,53.7c-0.84,0-1.26-0.42-1.26-1.25v-0.63l-1.71,0.54l-0.53-0.86c0.74-0.21,1.49-0.45,2.24-0.71v-2.63h0.96
		v2.29c1.58-0.64,2.85-1.33,3.83-2.06l0.63,0.72c-1.29,0.93-2.78,1.72-4.46,2.36v0.77c0,0.35,0.19,0.53,0.56,0.53h2.53
		c0.29,0,0.51-0.07,0.64-0.2c0.16-0.15,0.27-0.61,0.33-1.37l0.9,0.32c-0.09,1.03-0.28,1.67-0.56,1.9c-0.26,0.19-0.63,0.29-1.14,0.29
		H70.63z M70.4,59.06c1.71,0.52,3.32,1.19,4.81,2l-0.55,0.92c-1.52-0.87-3.11-1.57-4.76-2.09L70.4,59.06z"/>
	<path class="st3" d="M90.6,61.62c-0.46,0-1.26-0.01-2.41-0.03c-0.88-0.02-1.59-0.11-2.13-0.27c-0.54-0.18-1.02-0.55-1.44-1.1
		c-0.19-0.25-0.37-0.38-0.53-0.38c-0.33,0-0.88,0.69-1.64,2.08l-0.74-0.74c0.74-1.27,1.39-2.04,1.96-2.3v-4.57h-1.96v-0.99h2.87
		v5.63c0.1,0.08,0.21,0.2,0.33,0.35c0.34,0.44,0.69,0.76,1.05,0.95c0.42,0.21,1.03,0.33,1.83,0.36c0.95,0.02,1.84,0.03,2.67,0.03
		c0.41,0,1.06-0.01,1.96-0.03c0.74-0.02,1.24-0.04,1.52-0.06l-0.23,1.08H90.6z M82.62,48.33c0.96,0.81,1.73,1.59,2.33,2.33
		l-0.71,0.77c-0.54-0.72-1.3-1.52-2.28-2.39L82.62,48.33z M85.52,52.29h8.07v1.01h-4.31c-0.76,2.11-1.43,3.6-2.02,4.48
		c1.85-0.18,3.37-0.42,4.57-0.72c-0.28-0.7-0.64-1.5-1.08-2.41l0.81-0.29c0.71,1.33,1.36,2.92,1.96,4.77l-0.88,0.25
		c-0.1-0.32-0.25-0.78-0.45-1.38c-1.51,0.36-3.52,0.65-6.03,0.86l-0.26-0.95c0.55-0.18,1.35-1.72,2.41-4.62h-2.78V52.29z
		 M86.43,48.69h6.2v1.01h-6.2V48.69z"/>
	<path class="st3" d="M106.19,56.19c-0.83,0.3-1.66,0.57-2.49,0.81v3.29c0,0.93-0.42,1.4-1.26,1.4h-1.52l-0.21-1.04
		c0.53,0.05,0.99,0.08,1.4,0.08c0.38,0,0.57-0.24,0.57-0.71v-2.77c-0.98,0.24-1.88,0.43-2.69,0.57l-0.14-1.1
		c1.18-0.21,2.12-0.4,2.83-0.57v-2.96h-2.82v-1.04h2.82v-2.02c-0.66,0.15-1.41,0.29-2.26,0.42l-0.21-1.04
		c1.96-0.24,3.68-0.68,5.17-1.32l0.33,1.02c-0.6,0.23-1.28,0.46-2.02,0.68v2.26h3.28c-0.08-1.22-0.12-2.57-0.12-4.03h0.98
		c0.02,1.58,0.06,2.93,0.14,4.03h4.23v1.04h-4.14c0.1,1.11,0.23,2.02,0.38,2.72c0.06,0.3,0.15,0.66,0.27,1.07
		c0.67-0.9,1.25-1.9,1.74-2.98l0.85,0.5c-0.63,1.41-1.37,2.62-2.23,3.62c0.21,0.56,0.41,0.99,0.6,1.29c0.45,0.73,0.8,1.1,1.05,1.1
		c0.26-0.01,0.51-0.86,0.72-2.54l0.86,0.5c-0.33,2.14-0.81,3.2-1.44,3.2c-0.56,0-1.15-0.45-1.78-1.35
		c-0.29-0.43-0.54-0.91-0.75-1.43c-0.98,0.96-2.1,1.71-3.35,2.26l-0.53-0.93c1.32-0.53,2.49-1.32,3.5-2.38
		c-0.16-0.5-0.31-1.05-0.45-1.66c-0.19-0.86-0.34-1.86-0.45-2.99h-3.36v2.71c0.91-0.26,1.74-0.53,2.49-0.81V56.19z M109.35,48.29
		c1.01,0.74,1.85,1.46,2.5,2.15l-0.71,0.78c-0.63-0.73-1.45-1.48-2.45-2.24L109.35,48.29z"/>
	<path class="st3" d="M119.31,52.33h-1.08v-0.99h3.57l0.66-1.62h-3.41v-0.99h4.54v0.5l-0.83,2.12h1.81v0.99h-0.85v6.03l1.12-0.33
		v1.01l-1.12,0.32v2.53h-0.96v-2.27c-1.43,0.36-2.94,0.68-4.51,0.95l-0.23-1.02l1.3-0.2V52.33z M122.75,52.33h-2.49v1.53h2.49V52.33
		z M120.26,56.26h2.49v-1.44h-2.49V56.26z M120.26,59.16c0.79-0.16,1.62-0.34,2.49-0.54v-1.41h-2.49V59.16z M125.72,53.66
		c-0.23,0.6-0.5,1.18-0.81,1.73l-0.62-0.83c0.83-1.61,1.39-3.8,1.7-6.56l0.96,0.18c-0.13,0.9-0.24,1.64-0.34,2.21h3.82v1.04h-0.97
		c-0.06,2.53-0.48,4.68-1.27,6.45c0.71,1.3,1.56,2.32,2.56,3.04l-0.57,0.95c-0.95-0.73-1.77-1.72-2.48-2.98
		c-0.67,1.2-1.55,2.23-2.64,3.07l-0.52-0.93c1.1-0.8,1.98-1.85,2.64-3.16C126.58,56.61,126.09,55.2,125.72,53.66z M126.39,51.43
		l-0.16,0.66c0.36,1.83,0.83,3.4,1.41,4.69c0.56-1.5,0.86-3.29,0.92-5.36H126.39z"/>
	<path class="st3" d="M137.54,53h4.66v-4.75h1.04V53h4.61v8.79h-1V61.2h-9.4v-1.05h9.4v-2.59h-8.67v-1.04h8.67v-2.47h-9.31V53z
		 M138.51,49.03c0.73,1,1.31,1.92,1.74,2.74l-0.83,0.63c-0.44-0.86-1.02-1.79-1.74-2.8L138.51,49.03z M147.89,49.34
		c-0.43,1.04-1,2.06-1.72,3.04l-0.89-0.51c0.71-0.99,1.29-1.99,1.72-2.98L147.89,49.34z"/>
</g>
<rect x="6.49" y="25.4" class="st7" width="187.58" height="27.79"/>
<path class="st4" d="M41.98,62H18.04c-5.52,0-10-4.48-10-10V27.42c0-5.52,4.48-10,10-10h23.94c5.52,0,10,4.48,10,10V52
	C51.98,57.53,47.5,62,41.98,62z"/>
<g>
	<path class="st6" d="M27.89,34.05c-0.03,0.05-0.05,0.1-0.06,0.16l0.03-0.19L27.89,34.05z"/>
	<path class="st6" d="M36.51,30.48l-0.91,10.41c-0.09-0.01-0.18-0.02-0.27-0.02c-1.09,0-2.06,0.96-2.15,2.05
		c-0.02,0.25,0.01,0.49,0.07,0.71c-0.43-0.01-0.75-0.35-0.71-0.8l0.51-5.91l2.84-2.47c0.28-0.26,0.26-0.62,0.03-0.82l-2.39-2.19
		l0.06-0.63c0.04-0.44,0.42-0.79,0.86-0.79h1.64C36.35,30.03,36.53,30.23,36.51,30.48z"/>
	<path class="st6" d="M28.46,31.37l-0.29,3.33c-0.02,0.02-0.03,0.03-0.03,0.03s-0.55,5.8-0.46,5.53l-0.21,2.38
		c-0.07,0.28-0.24,0.48-0.41,0.62c0,0-0.01,0-0.01,0.01c-0.28,0.27-0.58,0.32-0.58,0.32l-3.72,0.02c0.07-0.19,0.12-0.4,0.13-0.6
		c0.07-0.88-0.31-1.39-0.7-1.8l2.51,0l0.68-8.26l-0.92,0l2-2.42h1.32C28.45,30.56,28.46,31.37,28.46,31.37z"/>
	<path class="st6" d="M20.97,30.54c0,0-5.09,4.09-6.1,5.42c-0.01,0.02-0.02,0.06-0.03,0.07l-0.51,6.88c0,0-0.1,0.79,1.15,0.69h3.11
		l0.42-0.01c0.23,0.55,0.77,0.93,1.43,0.93c0.93,0,1.76-0.74,1.84-1.67c0.08-0.86-0.53-1.57-1.38-1.65h-0.01c-0.05,0-0.11,0-0.16,0
		l-3.31,0l0.36-4.99l3.82-3.25l0.83-0.01l2-2.4l0.02-0.02H20.97z M20.64,42.33c0.38,0,0.66,0.31,0.63,0.69
		c-0.03,0.38-0.37,0.69-0.75,0.69c-0.38,0-0.66-0.31-0.63-0.69C19.93,42.64,20.26,42.33,20.64,42.33z"/>
	<path class="st6" d="M20.91,41.21L20.91,41.21l-0.01,0.01c-0.05-0.01-0.11-0.01-0.16-0.01H20.91z"/>
	<path class="st6" d="M28.17,34.7l-0.49,5.56v0c-0.09,0.26,0.46-5.53,0.46-5.53S28.14,34.72,28.17,34.7z"/>
	<path class="st5" d="M35.08,34.35l-2.23,1.94l0.13-0.69c0,0-4.11,1-5.31,4.67l0.49-5.56c0.21-0.16,1.44-1.03,4.19-1.56
		c0,0,0.82-0.18,0.84-0.18L33.27,32l1.8,1.64C35.26,33.83,35.26,34.19,35.08,34.35z"/>
	<path class="st6" d="M41.59,29.98h-2.91c-0.28,0-0.53,0.23-0.56,0.51l-0.95,10.89l2.74-4.02l0.65-4.57h1.82
		c0.11,0,0.23,0.01,0.33,0.02l1.58-2.44C43.54,30.1,42.64,29.96,41.59,29.98z M41.06,40.82l-0.77,0l-1.77,2.8h0.8
		c0.16,0,0.33-0.08,0.43-0.22l1.64-2.58C41.29,40.82,41.18,40.82,41.06,40.82z M46.57,32.43c-0.13-0.28-0.29-0.55-0.48-0.77
		l-1.45,2.24c0.19,0.33,0.33,0.72,0.36,1.18l1.56-2.47C46.59,32.56,46.6,32.48,46.57,32.43z M46.88,33.29l-1.94,3
		c-0.01,0.14-0.02,0.32-0.04,0.46c-0.24,1.34-0.7,2.36-1.4,3.06c-0.36,0.35-0.76,0.61-1.21,0.77l-1.94,3.07l0.21-0.02
		c4.12,0.22,6.3-2.1,6.52-6.91C47.21,35.37,47.15,34.23,46.88,33.29z M39.41,40.81l0.23-1.62l-2.14,3.03
		c0.06,0.22,0.09,0.46,0.07,0.71c-0.02,0.24-0.08,0.46-0.18,0.68c0.04,0.01,0.07,0.01,0.11,0.01h0.3l1.79-2.81L39.41,40.81z
		 M44.86,30.64l-1.47,2.27c0.3,0.1,0.65,0.28,0.86,0.47l1.42-2.2C45.46,30.99,45.12,30.78,44.86,30.64z"/>
	<path class="st6" d="M35.51,41.42c-0.87,0-1.64,0.71-1.71,1.58c-0.08,0.87,0.57,1.58,1.44,1.58c0.87,0,1.64-0.7,1.72-1.58
		C37.03,42.13,36.38,41.42,35.51,41.42z M35.29,43.71c-0.38,0-0.66-0.31-0.63-0.69c0.03-0.38,0.37-0.69,0.75-0.69
		s0.66,0.31,0.63,0.69C36.01,43.4,35.67,43.71,35.29,43.71z"/>
	<text transform="matrix(0.8996 0 -0.3198 0.9475 13.8748 48.25)"><tspan x="0" y="0" class="st6 st8 st9">H-</tspan><tspan x="5.39" y="0" class="st6 st8 st9 st10"> </tspan><tspan x="6.54" y="0" class="st6 st8 st9">DANG</tspan><tspan x="20.06" y="0" class="st6 st8 st9 st10"> </tspan><tspan x="21.21" y="0" class="st6 st8 st9">DANG</tspan></text>
</g>
</svg>
