<?xml version="1.0" standalone="no"?><!DOCTYPE svg PUBLIC "-//W3C//DTD SVG 1.1//EN" "http://www.w3.org/Graphics/SVG/1.1/DTD/svg11.dtd"><svg t="1597908105486" class="icon" viewBox="0 0 1133 1024" version="1.1" xmlns="http://www.w3.org/2000/svg" p-id="4412" xmlns:xlink="http://www.w3.org/1999/xlink" width="221.2890625" height="200"><defs><style type="text/css"></style></defs><path d="M1099.205949 859.452797L643.309543 69.845036c-33.084491-57.328946-115.83948-57.328946-148.923971 0L38.489166 859.452797c-33.084491 57.328946 8.271123 128.990128 74.483867 128.990128h911.77093c66.190863 0 107.568358-71.661182 74.461986-128.990128zM519.745972 326.906278c0-27.110902 21.990683-49.101586 49.101586-49.101585 13.54451 0 25.841788 5.492201 34.725586 14.375998 8.883798 8.90568 14.375999 21.159195 14.375999 34.725587v318.832087c0 27.110902-21.990683 49.079704-49.101585 49.079704s-49.101586-21.968802-49.101586-49.079704V326.906278z m49.101586 544.099833c-32.253002 0-58.379247-26.148126-58.379247-58.401128 0-32.231121 26.126245-58.379247 58.379247-58.379247s58.401128 26.148126 58.401128 58.379247c0 32.253002-26.148126 58.401128-58.401128 58.401128z" fill="#FFD41E" p-id="4413"></path><path d="M617.949143 326.906278v318.832087c0 27.110902-21.990683 49.079704-49.101585 49.079704s-49.101586-21.968802-49.101586-49.079704V326.906278c0-27.110902 21.990683-49.101586 49.101586-49.101585 13.54451 0 25.841788 5.492201 34.725586 14.375998 8.883798 8.90568 14.375999 21.159195 14.375999 34.725587zM627.248686 812.604983c0 32.253002-26.148126 58.401128-58.401128 58.401128-32.253002 0-58.379247-26.148126-58.379247-58.401128 0-32.231121 26.126245-58.379247 58.379247-58.379247s58.401128 26.148126 58.401128 58.379247z" fill="#333333" p-id="4414"></path></svg>